<!DOCTYPE svg PUBLIC "-//W3C//DTD SVG 20010904//EN" "http://www.w3.org/TR/2001/REC-SVG-20010904/DTD/svg10.dtd">
<svg version="1.0" xmlns="http://www.w3.org/2000/svg" width="512px" height="512px" viewBox="0 0 5120 5120" preserveAspectRatio="xMidYMid meet">
<g id="layer101" fill="#2a2726" stroke="none">
 <path d="M1879 4898 c-29 -35 -59 -69 -66 -76 -11 -11 -30 -10 -110 7 -76 17 -99 18 -105 8 -15 -23 -1 -31 88 -49 136 -27 135 -27 191 41 26 33 52 59 57 57 9 -2 151 -400 164 -455 5 -23 4 -24 -39 -17 -24 4 -64 9 -89 12 l-45 6 -65 -77 c-66 -77 -84 -115 -57 -115 11 0 125 118 143 148 1 2 46 -6 99 -17 54 -11 102 -18 107 -15 15 10 6 43 -81 294 -46 129 -88 251 -94 270 -7 19 -19 36 -28 38 -9 1 -38 -24 -70 -60z"/>
 <path d="M2345 4899 c-22 -17 -61 -45 -87 -62 -44 -29 -65 -67 -37 -67 14 0 75 36 112 67 48 39 43 57 68 -220 7 -70 16 -130 21 -133 13 -8 197 117 198 134 0 30 -33 22 -96 -23 -36 -26 -68 -44 -71 -41 -4 3 -10 59 -15 123 -21 275 -22 277 -93 222z"/>
 <path d="M2974 4828 c-5 -7 19 -36 62 -74 78 -71 82 -59 -36 -100 -61 -21 -74 -32 -59 -51 15 -17 224 56 224 79 0 18 -152 158 -172 158 -6 0 -15 -5 -19 -12z"/>
 <path d="M3607 4748 c-14 -24 -47 -86 -75 -138 -27 -52 -82 -155 -121 -229 -40 -74 -70 -140 -67 -148 10 -25 32 -13 54 30 12 23 43 83 70 132 140 261 192 364 192 379 0 30 -29 16 -53 -26z"/>
 <path d="M2870 4709 c-128 -46 -128 -48 -45 -124 86 -78 111 -93 127 -77 9 9 -4 27 -57 75 l-69 63 85 30 c55 19 84 34 84 44 0 24 -35 21 -125 -11z"/>
 <path d="M1317 4677 c-9 -17 -25 -53 -36 -80 -11 -26 -24 -47 -28 -47 -5 0 -17 14 -26 30 -20 32 -24 35 -47 20 -12 -8 -11 -14 8 -40 13 -17 20 -34 18 -39 -3 -5 -42 -12 -86 -16 -75 -7 -81 -9 -78 -29 2 -11 8 -20 13 -19 6 1 53 4 105 8 l95 7 45 -66 c25 -35 88 -124 140 -195 87 -121 116 -147 127 -115 2 6 -59 97 -137 203 -77 105 -140 197 -140 204 0 7 18 51 39 99 27 62 35 90 28 97 -17 17 -24 13 -40 -22z"/>
 <path d="M4044 4346 c-63 -72 -106 -115 -119 -115 -11 -1 -57 6 -103 15 -65 13 -86 14 -95 5 -19 -20 14 -37 98 -50 41 -7 75 -14 75 -16 0 -2 -36 -45 -80 -95 -79 -89 -91 -112 -69 -126 12 -7 38 20 142 143 32 38 60 63 72 63 11 0 57 -7 103 -16 62 -13 86 -14 95 -5 18 18 -3 30 -84 46 -41 9 -78 17 -83 18 -5 2 33 50 83 107 86 98 102 128 75 137 -6 2 -56 -48 -110 -111z"/>
 <path d="M915 4165 c-33 -13 -114 -43 -180 -67 -83 -30 -121 -49 -123 -61 -2 -11 3 -17 13 -17 14 0 250 81 323 110 28 12 28 21 -8 -185 -18 -106 -26 -173 -20 -179 8 -8 102 22 358 116 48 18 65 39 42 53 -5 3 -51 -10 -102 -29 -155 -57 -239 -86 -249 -86 -6 0 -8 8 -5 18 9 28 56 309 56 331 0 28 -28 27 -105 -4z"/>
 <path d="M4200 3967 c-225 -158 -280 -207 -235 -207 9 0 48 22 87 49 l70 50 41 -19 c23 -10 96 -44 162 -75 l120 -57 -30 -24 c-16 -13 -83 -61 -148 -105 -83 -57 -117 -86 -115 -97 2 -10 10 -16 18 -16 8 1 116 72 240 159 287 202 269 188 270 202 0 30 -27 21 -105 -32 l-84 -58 -162 74 -161 73 32 26 c18 14 87 63 154 110 113 80 142 112 106 117 -8 1 -125 -75 -260 -170z"/>
 <path d="M575 3696 l-81 -54 -47 25 c-26 13 -52 21 -57 18 -22 -13 -8 -36 34 -57 40 -19 44 -25 50 -66 3 -25 6 -71 6 -102 0 -42 4 -59 15 -63 23 -9 28 10 26 100 l-2 85 206 -106 c169 -88 209 -105 221 -95 22 18 12 25 -203 135 -106 54 -193 101 -193 105 0 3 32 27 70 53 67 44 89 76 52 76 -9 0 -53 -24 -97 -54z"/>
 <path d="M4736 3382 c-3 -5 -15 -51 -26 -103 -12 -51 -22 -95 -24 -97 -2 -1 -84 -29 -182 -60 -152 -49 -179 -61 -179 -77 0 -27 4 -26 190 35 88 28 213 69 278 89 65 21 123 43 130 50 9 10 -6 29 -73 92 -82 76 -103 89 -114 71z m84 -102 c31 -28 40 -41 30 -44 -44 -16 -103 -36 -107 -36 -3 0 -2 14 1 30 3 17 9 44 12 60 3 17 9 30 12 30 4 -1 27 -18 52 -40z"/>
 <path d="M274 3036 c-7 -19 65 -216 82 -223 7 -3 28 12 46 33 18 21 45 52 59 68 l26 29 28 -76 c31 -86 43 -101 65 -84 34 26 142 167 137 179 -3 8 -76 26 -193 46 -104 18 -201 35 -217 38 -19 4 -29 1 -33 -10z m166 -70 c-1 -13 -68 -91 -74 -85 -4 5 -36 101 -36 109 0 4 25 2 55 -3 30 -6 55 -15 55 -21z m198 -26 c10 -5 5 -17 -20 -48 -18 -22 -38 -41 -44 -41 -6 -1 -16 17 -23 40 -7 23 -15 47 -18 55 -4 11 4 13 43 8 27 -4 55 -10 62 -14z"/>
 <path d="M4713 2895 c-21 -41 -41 -74 -44 -73 -4 2 -27 32 -52 68 -43 64 -69 80 -75 50 -1 -9 20 -48 48 -89 27 -40 50 -79 50 -87 0 -8 -18 -51 -41 -95 -22 -45 -38 -87 -35 -95 12 -31 33 -10 72 68 l41 82 48 -72 c31 -46 55 -72 66 -72 11 0 19 4 19 10 0 5 -25 48 -56 95 l-55 85 40 86 c44 93 49 114 26 114 -9 0 -31 -31 -52 -75z"/>
 <path d="M425 2643 c-171 -15 -285 -30 -293 -37 -10 -10 -1 -28 43 -91 30 -44 55 -86 55 -93 0 -7 -16 -47 -35 -89 -33 -72 -43 -113 -28 -113 28 0 601 52 611 55 6 2 12 11 12 20 0 18 -62 20 -203 6 -233 -24 -358 -34 -363 -28 -3 3 9 36 26 74 18 37 33 73 33 78 0 6 -21 41 -48 78 -26 37 -46 69 -44 71 2 2 121 13 264 25 309 27 307 26 303 49 -4 23 -14 23 -333 -5z"/>
 <path d="M4564 2416 c-4 -12 92 -312 126 -393 14 -33 27 -29 69 19 20 23 82 95 139 159 56 64 102 124 102 133 0 16 -40 24 -40 9 0 -5 -17 -26 -38 -49 -21 -22 -73 -82 -117 -132 -43 -51 -82 -89 -85 -85 -4 5 -31 78 -60 163 -29 85 -57 163 -62 173 -11 21 -27 22 -34 3z"/>
 <path d="M720 2175 c-19 -7 -139 -49 -267 -93 -128 -44 -237 -83 -243 -87 -22 -13 -7 -34 65 -95 41 -35 75 -66 75 -69 -1 -3 -9 -46 -19 -95 -18 -83 -18 -116 -2 -116 3 0 136 45 295 100 159 55 290 100 292 100 9 0 3 29 -6 35 -5 3 -89 -21 -186 -54 -97 -34 -181 -61 -188 -61 -6 0 -40 26 -75 58 l-63 57 16 84 c9 46 16 84 16 86 0 1 83 31 185 66 146 50 185 67 185 81 0 21 -28 22 -80 3z m-346 -212 c-10 -75 -15 -78 -62 -37 -24 20 -40 39 -37 43 5 4 83 35 103 40 2 1 0 -20 -4 -46z m69 -209 c21 -20 37 -37 35 -38 -17 -9 -102 -35 -106 -32 -9 10 10 106 21 106 7 0 29 -17 50 -36z"/>
 <path d="M4283 1974 c-3 -9 -3 -99 0 -200 3 -101 4 -184 2 -184 -2 0 -38 19 -80 41 -54 29 -80 38 -87 31 -6 -6 -8 -17 -5 -24 3 -7 72 -48 154 -90 81 -42 202 -106 268 -141 66 -36 126 -62 133 -59 11 4 12 40 7 196 -7 218 -11 256 -28 256 -7 0 -78 -40 -157 -90 -79 -49 -147 -90 -151 -90 -7 0 -19 179 -19 285 0 56 -4 74 -15 79 -9 3 -18 -1 -22 -10z m346 -456 c1 -60 -2 -108 -5 -108 -4 0 -41 19 -83 42 -42 22 -101 55 -131 71 -30 16 -58 32 -62 36 -4 3 55 45 130 92 l137 86 6 -56 c4 -31 7 -104 8 -163z"/>
 <path d="M860 1702 c-47 -32 -160 -106 -252 -166 -105 -67 -168 -114 -168 -125 0 -24 380 -213 398 -199 19 17 6 26 -163 113 -82 43 -154 81 -159 86 -5 4 45 42 110 84 307 198 354 230 354 248 0 29 -31 18 -120 -41z"/>
 <path d="M4197 1433 c-3 -5 -19 -84 -37 -178 -18 -93 -35 -176 -39 -183 -5 -9 -49 24 -140 103 -123 106 -166 132 -166 97 0 -18 457 -413 474 -410 16 3 21 23 70 273 23 119 26 153 17 163 -22 23 -33 -7 -66 -183 -18 -94 -35 -173 -39 -178 -4 -4 -18 2 -32 14 -13 11 -37 32 -52 45 l-28 23 39 199 c21 109 36 204 34 210 -4 13 -28 16 -35 5z"/>
 <path d="M1100 1198 c0 -7 12 -43 27 -80 14 -38 24 -71 21 -74 -3 -3 -42 0 -87 7 -44 7 -84 10 -87 6 -4 -3 8 -45 25 -93 l31 -87 -48 6 c-26 3 -68 9 -94 13 -41 6 -48 4 -48 -10 0 -21 28 -32 120 -46 41 -6 79 -15 84 -20 5 -5 23 -46 40 -91 17 -46 37 -84 43 -87 25 -8 25 29 -1 95 -14 37 -23 69 -21 72 3 2 40 -1 82 -7 51 -8 80 -9 87 -2 6 6 0 37 -18 90 -16 45 -27 83 -24 85 2 2 21 0 43 -5 22 -4 61 -11 88 -15 42 -6 47 -4 47 13 0 25 -5 26 -114 43 -79 12 -89 16 -98 39 -53 145 -60 160 -79 160 -10 0 -19 -6 -19 -12z m11 -198 c29 -6 57 -14 61 -18 4 -4 19 -38 32 -76 l25 -68 -32 6 c-18 3 -51 8 -74 12 -41 6 -42 7 -67 76 -14 38 -26 71 -26 74 0 6 23 5 81 -6z"/>
 <path d="M3580 1096 c0 -18 341 -508 358 -514 25 -8 24 30 -3 69 l-28 40 43 95 c29 63 40 98 33 105 -7 7 -43 7 -109 0 -54 -6 -101 -8 -103 -5 -3 3 -40 53 -81 112 -71 100 -110 135 -110 98z m329 -293 c-11 -27 -24 -52 -29 -56 -6 -7 -70 71 -70 87 0 6 36 13 82 15 l37 1 -20 -47z"/>
 <path d="M3334 946 c-4 -11 16 -90 50 -198 49 -152 55 -182 44 -196 -24 -31 -212 -237 -219 -240 -4 -2 -47 117 -96 264 -82 249 -104 298 -119 261 -6 -17 172 -575 190 -595 12 -13 62 36 231 228 22 25 42 47 45 50 33 33 33 35 -30 227 -63 191 -83 233 -96 199z"/>
 <path d="M1511 891 c-12 -8 -5 -23 32 -83 l46 -73 -27 -6 c-15 -4 -53 -7 -85 -8 -38 -1 -59 -6 -63 -15 -3 -7 23 -56 56 -109 l62 -96 96 5 c111 6 142 11 142 23 0 4 -20 39 -45 77 -24 38 -45 72 -45 77 0 4 35 7 78 7 84 0 108 9 99 34 -6 15 -20 16 -109 10 l-103 -6 -55 86 c-30 47 -57 86 -60 86 -3 0 -11 -4 -19 -9z m152 -268 c20 -32 33 -61 31 -65 -3 -5 -36 -8 -73 -8 l-68 0 -37 55 c-20 30 -36 59 -36 65 0 6 31 10 74 10 l74 0 35 -57z"/>
 <path d="M2522 777 c-7 -8 -7 -51 -2 -122 5 -61 14 -184 20 -275 13 -217 16 -230 42 -230 19 0 20 3 13 90 -5 64 -4 90 4 90 6 0 83 -36 172 -80 88 -44 164 -78 169 -75 31 19 -1 41 -175 126 l-185 89 0 70 c0 38 3 70 8 69 4 0 79 -35 167 -78 113 -55 164 -75 173 -68 6 5 12 13 12 18 0 5 -83 48 -183 97 l-184 90 -6 38 c-4 22 -7 64 -7 95 0 58 -17 82 -38 56z"/>
 <path d="M1995 638 c-24 -135 -32 -194 -28 -200 7 -13 25 -9 106 22 43 17 84 30 92 30 7 0 46 -27 87 -60 78 -64 94 -70 102 -42 17 57 36 206 27 215 -6 6 -42 -1 -105 -23 l-95 -33 -48 39 c-26 21 -59 49 -73 61 -36 33 -58 30 -65 -9z m99 -73 l38 -34 -38 -16 c-21 -8 -48 -18 -60 -21 -21 -5 -21 -4 -13 38 4 24 8 49 9 56 0 21 23 13 64 -23z m243 -32 c-3 -10 -8 -35 -12 -55 -3 -21 -8 -38 -11 -38 -9 0 -84 63 -84 71 0 8 75 37 98 38 8 1 11 -6 9 -16z"/>
 </g>
</svg>